<svg width="116" height="109" viewBox="0 0 116 109" fill="none" xmlns="http://www.w3.org/2000/svg">
<path d="M49.679 4.39499L49.577 4.13901L49.622 4.07501L49.674 4.04099L49.74 4.04901L50 4.323L50.113 4.39801L50.279 4.59698L50.654 4.621L51.104 4.40701L51.314 4.49399L51.414 4.478L51.744 4.27499L51.959 4.21701L52.103 4.06699L52.249 4.229L52.575 4.41699L52.678 4.61401L52.816 4.707L52.862 4.76901L52.663 4.97601L52.638 5.19901L52.425 5.18399L52.17 5.54999L51.213 6.164L50.354 5.64001L49.981 5.28601L49.731 4.79599L49.679 4.39499ZM68.146 17.078L68.178 17.223L68.33 17.364L68.45 17.23L68.387 17.114L68.368 16.896L68.214 16.699L68.148 16.866L68.085 16.905L68.026 17.038L68.146 17.078ZM74.473 19.962L74.596 19.964L74.796 19.898L74.9 19.758L75.009 19.794L75.226 19.538L75.372 19.412L75.76 19.37L75.498 19.045L75.451 19.022L75.089 19.148L74.623 19.231L74.443 19.406L74.257 19.693L74.215 19.949L74.248 20.03L74.473 19.962ZM82.691 1.12799L82.759 0.933014L82.638 0.838013L82.494 1.03699L82.618 1.20499L82.691 1.12799ZM67.062 4.604L67.463 4.08099L67.572 3.56299L67.435 3.59799L67.422 3.82599L67.375 3.979L67.312 4.034L67.203 4.13101L66.953 4.547L66.846 4.64999L66.86 4.77802L67.062 4.604ZM55.542 3.99301L55.766 4.43201L55.822 4.388L55.923 4.008L55.832 3.82999L55.822 3.521L55.781 3.439L55.666 3.608L55.515 3.633L55.606 3.85699L55.542 3.99301ZM66.446 5.186L66.702 4.97601L66.727 4.853L66.642 4.91299L66.131 5.16699L65.887 5.453L66.331 5.241L66.446 5.186ZM67.758 16.792L67.803 16.771L67.88 16.681L67.843 16.431L67.755 16.551L67.758 16.792ZM82.588 2.508L82.573 2.58701L82.605 2.767L82.757 2.85199L82.991 2.689L82.775 2.36899L82.588 2.508ZM66.793 16.664L66.825 16.792L66.872 16.807L67.04 16.795L67.101 16.551L67.027 16.521L66.849 16.548L66.793 16.664ZM67.867 12.665L67.591 12.552L67.487 12.429L67.474 12.307L67.594 11.942L67.669 11.832L67.748 11.801L67.924 11.601L67.882 11.485L67.825 11.419L67.754 11.382L67.64 11.645L67.509 11.653L67.388 11.534L67.335 11.311L67.352 11.183L67.222 11.167L67.018 11.297L66.88 11.505L66.573 11.71L66.536 12.13L66.582 12.461L66.482 12.603L66.323 12.707L66.401 12.756L66.673 12.772L67.204 12.904L67.522 12.883L67.89 12.94L67.994 12.805L68.049 12.627L68.002 12.612L67.867 12.665ZM108.147 40.964L108.212 40.923L108.309 40.795L108.248 40.637L108.12 40.413L108.152 40.215L108.073 40.165L107.985 40.174L107.889 40.097L107.646 40.005L107.571 40.217L107.995 40.858L108.147 40.964ZM113.238 47.121L113.309 47.036L113.327 46.824L113.489 46.299L114.075 44.911L114.1 44.648L113.928 44.456L113.883 43.912L113.813 43.883L113.718 43.916L113.599 43.994L113.495 44.148L113.615 44.203L113.771 44.479L113.73 44.735L113.623 44.935L113.199 45.312L113.262 45.649L113.236 45.81L113.09 46.101L113.027 46.419L113.112 46.969L113.238 47.121ZM114.273 51.966L114.334 51.919L114.289 51.559L114.402 51.046L114.305 51.021L114.158 51.082L114.116 51.362L114.148 51.665L114.273 51.966ZM114.217 52.516L114.203 53.018L114.289 53.148L114.362 53.165L114.604 52.298L114.556 52.254L114.314 52.2L114.217 52.516ZM106.123 36.557L106.213 36.51L106.137 36.273L106.043 36.22L106.033 36.392L105.97 36.513L106.042 36.564L106.123 36.557ZM104.472 36.167L104.471 36.035L104.427 35.732L104.323 35.808L104.306 36.038L104.373 36.258L104.472 36.167ZM93.772 24.565L93.983 24.772L94.108 25.03L94.285 25.13L94.364 25.024L94.406 24.881L94.285 24.664L94.227 24.385L94.145 24.369L94.094 24.414L93.97 24.455L93.723 24.445L93.772 24.565ZM83.005 1.41199L83.172 1.23599L83.06 1.08899L82.835 1.11499L82.769 1.25601L82.828 1.35901L83.005 1.41199ZM101.686 30.053L101.744 30.008L101.777 29.739L101.674 29.812L101.604 29.91L101.549 30.034L101.623 30.066L101.686 30.053ZM101.831 30.504L101.922 30.506L101.989 30.473L101.993 30.431L101.879 30.264L101.813 30.062L101.695 30.449L101.831 30.504ZM75.09 20.925L74.947 21.046L74.984 21.166L75.089 21.116L75.402 21.057L75.372 20.904L75.184 20.754L75.09 20.925ZM92.006 88.721L91.837 88.576L91.469 88.593L91.443 88.672L91.427 88.849L91.583 88.957L92.006 88.721ZM99.895 94.602L99.818 94.533L99.56 94.43L99.061 93.771L98.873 93.656L98.609 94.04L98.407 94.181L98.534 94.327L98.714 94.309L98.797 94.549L98.754 94.706L99.13 95.281L99.193 95.43L99.268 95.533L99.358 95.611L99.652 95.507L99.902 95.283L99.941 95.287L99.968 95.181L99.765 95.016L99.874 94.891L99.895 94.602ZM99.725 96.541L99.673 96.504L99.602 96.497L99.389 96.564L99.416 96.647L99.587 96.826L99.725 96.541ZM91.001 89.338L91.4 89.31L91.636 89.443L91.619 89.376L91.521 89.207L91.447 89.141L91.251 89.093L91.001 89.338ZM90.035 96.51L90.053 96.266L90.032 96.246L89.942 96.376L89.827 96.431L89.932 96.814L90.035 96.51ZM65.83 11.341L65.759 11.388L65.725 11.467L65.727 11.571L65.982 11.626L66.048 11.594L66.154 11.498L66.104 11.255L65.986 11.135L65.83 11.341ZM99.976 95.776L99.616 95.963L99.225 95.96L99.089 96.047L99.116 96.133L99.347 96.307L99.66 96.329L99.956 96.245L100.05 96.475L100.194 96.436L100.391 96.237L100.241 95.997L99.976 95.776ZM100.017 102.482L99.981 102.341L99.907 102.214V102.079L99.946 101.791L99.868 101.371L99.893 100.736L99.866 100.395L99.874 100.059L99.937 99.629L99.92 99.195L99.879 98.978L99.861 98.758L99.882 98.134L99.664 97.793L99.152 97.52L98.971 97.515L98.702 97.859L98.547 97.856L97.997 97.756L97.878 97.87L97.657 98.198L97.528 98.337L97.34 98.277L97.151 98.17L97.006 98.182L96.865 98.27L96.548 98.31L96.223 98.303L96.026 98.397L95.849 98.547L95.791 98.736L95.825 98.954L95.65 98.752L95.475 98.62L95.27 98.762L95.056 98.859L94.335 98.937L93.756 98.769L92.943 98.422L92.814 98.32L92.697 98.19L92.563 98.105L92.255 97.976L92.135 97.828L91.999 97.786L91.843 97.807L91.618 97.689L91.431 97.481L91.266 97.463L91.082 97.557L90.757 97.543L90.127 97.303L89.847 97.121L89.822 97.529L89.643 98.261L89.689 98.624L89.789 99.039L89.976 99.6L89.981 99.781L90.015 99.888L90.401 100.729L90.794 101.414L91.307 102.139L91.366 102.469L91.299 102.807L91.466 102.785L91.569 102.619L91.593 102.784L91.651 102.923L92.089 103.403L92.119 103.53L91.953 103.927L91.859 103.599L91.685 103.342L91.197 102.935L91.304 103.785L91.391 104.122L92.007 105.577L92.091 105.671L92.231 105.735L92.35 105.851L92.551 106.148L92.891 106.792L93.089 106.978L93.375 106.919L93.796 107.05L93.94 107.014L94.029 107.069L94.081 107.219L93.751 107.216L93.43 107.299L93.395 107.424L93.483 107.565L93.567 107.96L93.97 107.827L94.606 107.853L94.986 107.811L95.409 108.17L95.788 108.237L95.899 108.211L96.126 107.786L96.267 107.275L96.354 107.08L96.471 106.914L96.219 106.695L96.211 106.584L96.244 106.456L96.738 106.838L96.94 106.684L96.982 106.341V106.129L97.041 105.978L97.165 105.908L97.215 105.72L97.229 105.575L97.101 105.247L97.089 105.058L97.399 105.451L97.523 105.984L97.76 105.843L97.794 105.759L97.757 105.39L97.863 105.267L98.199 105.367L98.498 105.581L98.519 105.68L98.499 105.78L98.425 105.868L98.182 105.778L98.071 105.934L98.215 106.324L98.459 106.698L98.606 106.602L98.906 106.551L99.006 106.456L98.942 105.704L98.822 105.154L98.814 104.553L98.848 104.226L98.986 103.974L99.087 103.708L99.074 103.365L99.124 103.041L99.247 102.705L99.419 102.454L99.499 102.396L99.457 102.326L99.53 102.109L99.66 101.95L99.739 102.145L99.635 102.221L99.574 102.306L99.778 102.449L99.839 102.576L99.86 102.716L99.839 102.89L99.876 103.024L99.991 103.049L100.023 102.874L99.99 102.662L100.017 102.482ZM114.708 54.836L114.369 54.228L114.294 53.751L114.175 53.343L113.648 52.197L113.42 51.536L113.547 50.872L113.328 48.751L113.555 47.695L113.445 47.566L113.172 47.403L113.051 47.236L112.87 46.84L112.85 46.047L112.5 45.559L112.122 45.336L111.866 44.936L111.694 44.603L111.67 44.418L111.566 44.105L111.276 43.89L111.077 43.788L110.65 43.475L110.441 43.159L110.012 42.26L109.813 42.021L109.417 41.763L109.093 41.748L108.884 41.684L108.142 41.112L107.911 40.987L107.725 40.719L107.447 40.431L107.286 40.219L107.039 39.994L106.87 39.139V38.309L106.816 37.32L106.559 36.843L106.42 36.689L106.268 36.74L106.256 37.048L106.298 37.258L106.191 37.268L105.809 36.996L105.331 36.706L105.073 36.382L104.885 36.078L104.729 36.09L104.619 36.138L104.509 36.512L104.688 37.157L104.6 37.245L104.449 37.096L104.174 36.759L104.031 36.869L103.842 36.912L103.677 36.574L103.538 36.361L103.337 35.656L103.157 34.88L103.14 34.319L102.789 34.011L102.652 33.482L102.543 33.335L102.44 32.96L102.035 32.47L101.619 32.124L101.274 31.797L100.977 31.334L101.107 30.999L101.318 31.07L101.542 31.038L101.363 30.697L101.189 30.468L100.744 30.039L100.537 29.931L100.089 29.868L99.591 29.477L99.286 29.308L99.071 29.281L98.822 29.22L98.646 28.999L98.335 28.926L97.897 28.489L97.682 28.049L97.574 27.887L97.427 27.765L97.211 27.838L97.033 27.871L96.641 27.809L96.512 27.63L96.259 27.403L95.772 27.343L95.387 27.2L95.093 27.059L94.795 26.879L94.521 26.579L94.278 26.178L94.32 25.664L94.381 25.331L94.071 25.202L93.536 24.505L93.51 24.22L93.654 23.638L93.8 22.636L93.587 21.892L93.172 20.985L93.2 20.525L92.991 20.519L92.759 20.429L92.432 19.982L92.184 19.688L92.017 19.417L91.836 19.05L91.865 18.756L91.908 18.558L91.926 18.034L91.695 17.525L91.622 17.004L91.403 16.353L91.464 15.921L91.416 15.565L91.348 15.257L91.419 15.061L91.448 14.812L91.146 14.563L90.822 14.373L90.404 14.037L89.653 13.513L89.48 13.117L89.162 12.763L88.737 12.9L88.424 12.965L88.132 13.232L87.728 13.429L87.336 13.251L87.15 13.101L87.012 12.571L86.833 11.993L86.681 11.703L86.567 11.353L86.674 10.5L86.514 10.099L86.464 9.5L86.312 8.81601L86.143 8.474L86.155 8.19901L85.841 7.79599L85.741 7.50699L85.563 7.40302L85.337 7.23801L85.305 7.017L85.322 6.85599L85.457 6.58899L85.53 6.24301L85.215 6.15701L84.996 6.142L84.843 6.03299L84.671 5.86401L84.609 5.32599L84.615 4.75601L84.57 4.39999L84.476 4.13501L84.41 3.85501L84.251 3.55701L83.773 3.17001L83.808 3.01401L83.919 2.81201L83.75 2.69601H83.502L83.362 2.966L83.136 3.198L82.693 3.375L82.61 4.30301L82.335 5.323L82.085 6.07599L82.131 6.30399L82.111 6.52701L81.976 6.427L81.857 6.302L81.675 6.60001L81.346 7.37299L81.316 7.77399L81.509 7.88199L81.644 7.98801L81.805 8.02301L81.878 8.12201L81.919 8.31601L82.023 8.483L81.997 8.664L81.872 8.59299L81.609 8.59399L81.475 8.75101L81.136 9.065L81.225 9.96899L81.066 10.445L80.913 10.814L80.74 11.514L80.763 11.885L80.916 12.149L81.081 12.535L80.981 13.067L80.88 13.448L81.106 14.552L81.169 15.14L81.045 15.541L80.681 16.727L80.517 17.595L80.57 18.074L80.412 18.514L80.232 19.218L80.029 19.75L79.318 20.824L79.177 21.344L78.938 21.992L78.427 22.37L78.041 22.606L77.195 22.84L76.707 22.835L76.455 22.692L76.31 22.568L75.735 22.361L75.036 21.893L74.498 21.741L74.232 21.271L74.206 21.076L74.11 20.822L73.828 20.488L73.296 20.375L72.75 20.134L72.413 20.168L71.682 19.961L71.195 19.666L70.75 19.257L70.163 18.549L69.665 18.358L69.028 18.065L68.662 17.821L68.44 17.703L68.194 17.52L67.97 17.561L67.583 17.566L67.34 17.394L67.309 17.259L67.346 17.153L67.36 16.96L67.275 16.931H67.189L67.118 16.983L67.019 17.021L66.677 16.873L66.198 16.626L66.108 16.409L65.957 16.144L65.295 15.759L64.911 15.441L64.063 14.98L63.846 14.757L63.775 14.562L63.712 14.281L63.902 13.989L64.087 13.782L64.664 12.923L64.837 12.773L65.054 12.54L65.253 11.913L65.352 11.555L65.183 11.013L65.177 10.103L65.847 9.75L66.034 9.70401L66.207 9.62601L66.405 9.73599L66.538 9.90701L66.676 9.87601L67.05 9.242L66.99 8.978L66.835 8.75299L66.889 8.61401L68.041 7.37299L67.9 7.069L67.729 6.99899L67.401 7.01999L67.092 6.755L66.898 6.254L66.626 6.23599L66.14 6.75L66.083 6.86801L66.201 6.935L66.304 7.24701L66.114 7.61301L65.924 7.616L65.612 7.57999L65.47 7.319L65.406 6.92099L65.208 6.80899L64.982 6.884L64.795 7.02399L64.663 7.064L64.553 6.97299L64.547 6.80701L64.832 6.53101L65.071 6.354L65.09 6.28799L64.916 6.23401L64.942 6.10599L65.164 5.879L65.06 5.867L64.789 6.10999L64.5 6.25L64.116 6.548L63.565 6.74301L63.187 7.00699L62.66 6.927L62.169 6.66699L62.062 6.53L61.82 6.32901L61.281 6.547L60.942 6.52399L60.755 6.44699L60.436 6.39499L60.162 6.202L59.502 5.89401L58.801 5.83499L58.461 5.849L58.208 5.69L57.964 5.599L57.485 5.535L57.286 5.29599L57.035 4.815L56.855 4.686L56.564 4.64001L56.255 4.86099L56.074 4.965L55.721 4.57001L55.094 4.16199L54.894 4.10599L54.789 4.20499L54.713 4.39301L54.594 4.41101L54.455 4.32599L54.21 4.08499L54.05 4.04099L53.63 4.298L53.659 4.38599L54.002 4.517L54.362 4.87601L54.533 4.95001L54.937 4.85599L55.491 4.92401L56.05 5.37201L55.968 5.595L55.926 5.905L55.941 6.24301L55.928 6.47198L56.158 6.724L56.055 6.74301L55.795 6.686L55.59 6.75601L55.397 6.875L55.311 7.21399L55.202 7.05399L54.868 6.90201L54.67 7.01901L54.338 7.173L54.036 7.11099L53.844 7.03299L53.39 7.16501L52.581 7.16101L52.311 6.97101L52.232 6.64499L52.169 6.565L52.095 6.711L51.968 6.879L51.479 6.91299L51.406 6.98199L51.435 7.14499L51.416 7.35001L51.228 7.36499L50.996 7.41901L51.021 7.67001L51.064 7.866L50.978 7.96399L50.723 7.785L50.609 7.59201L50.43 7.53201L50.29 7.60101L50.254 7.77301L50.275 8.21701L50.148 8.267L49.817 8.25L49.665 8.33401L49.436 8.892L49.015 9.10501L48.951 9.396L48.923 9.64401L49.273 10.093L49.104 10.323L48.926 10.511L48.748 10.591L48.37 10.664L48.092 10.869L47.975 11.085L47.953 11.291L47.876 11.555L47.755 11.868L47.731 12.037L47.478 12.205L47.028 12.708L46.801 13.223L47.097 13.503L47.445 13.704L47.698 13.698L47.7 13.749L47.436 13.956L47.6 14.168L47.853 14.366L48.007 14.395L48.12 14.479L47.881 14.526L47.527 14.543L47.459 14.759L47.502 15.008L47.565 15.224L47.521 15.377L47.389 15.272L47.331 15.11L47.027 14.78L46.809 14.679L46.49 14.601L46.394 14.701L46.407 15.204L46.344 15.435L46.231 15.304L46.203 14.936L45.902 14.638L44.716 14.34L44.548 14.321L44.272 14.36L44.083 14.478L44.064 14.594L43.938 14.688L43.733 14.795L43.545 14.959L43.423 15.096L43.417 15.267L43.569 15.588L43.658 15.681L43.646 15.834L43.498 15.675L43.368 15.624L43.245 15.874L43.127 15.924L43.158 15.226L43.281 14.753L43.381 14.474L43.491 14.256L43.438 14.141L42.616 13.488L42.268 12.953L42.013 12.653L41.616 12.364L41.409 12.182L40.948 11.904L40.404 11.711L40.142 11.45L39.853 11.357L39.495 11.484L39.465 11.727L39.51 11.963L39.225 12.349L38.918 12.555L38.673 12.319L38.45 12.147L38.225 12.271L38.157 12.484L38.044 12.563L37.959 12.418L37.836 12.098L37.653 11.971L37.47 12.027L37.525 12.281L37.63 12.421L37.601 12.623L37.469 12.716L37.444 12.907L37.365 13.161L37.377 13.516L37.168 13.591L37.012 13.872L36.899 13.812L36.87 13.629L36.813 13.442L36.585 13.371L36.501 13.545L36.45 13.604L36.369 13.616L36.424 13.474V13.208L36.49 12.93L36.274 12.83L36.188 12.892L36.191 13.132L36.139 13.482L35.925 13.537L35.735 13.694L35.454 13.697L35.311 13.773L35.26 13.958L35.013 14.149L35.018 14.378L35.184 14.61L35.195 14.812L35.59 15.017L35.567 15.223L35.511 15.319L35.362 15.281L35.043 15.103L34.718 15.065L34.62 14.983L34.581 15.042L34.579 15.179L34.453 15.279L34.272 15.289L34.061 15.436L34.211 15.666L34.184 15.757L34.258 15.867L34.58 15.887L34.717 15.858L34.731 16.054L34.69 16.25L34.559 16.32L34.434 16.14L33.813 15.795L33.65 15.762L33.616 15.87L33.645 16.011L33.514 16.182L33.283 16.406L33.126 16.345L32.94 16.398L32.82 16.781L32.778 17.164L32.984 17.432L33.122 17.785L33.409 17.351L33.526 17.301L33.527 17.489L33.415 17.684L33.349 17.924L33.327 18.195L33.139 18.202L32.928 18.166L32.877 18.252L32.798 18.454L32.844 18.733L32.984 18.838L33.309 18.828L33.586 18.848L33.833 18.949L33.874 19.034L33.651 18.986L33.195 19.012L32.978 18.974L32.547 19L32.227 18.841L32.069 18.682L31.83 18.641L31.597 18.705L31.467 18.928L31.31 18.982L30.945 18.43L30.716 18.393L30.603 18.522L30.713 18.868L30.655 19.081L30.53 19.24L30.372 19.23L30.274 19.297L30.352 19.443L30.602 19.814L30.807 19.976L30.989 20.201L31.082 20.395L31.302 20.386L31.353 20.543L31.227 20.771L31.231 21.133L31.141 21.152L31.014 21.072L30.762 20.849L30.632 20.806L30.565 20.87L30.544 21.023L30.605 21.423L30.476 21.994L30.502 22.161L30.479 22.303L30.373 22.2L30.243 21.979L29.974 21.636L29.645 20.889L29.297 20.383L29.108 19.952L28.817 19.141L28.666 19.129L28.473 19.478L28.26 19.937L28.115 20.163L27.771 20.388L27.559 20.616L27.305 20.696L27.026 20.956L26.825 21.179L26.543 21.699L26.495 22.034L26.507 22.387L26.63 22.888L26.76 23.616L26.951 23.694L27.105 23.817L27.062 24.037L26.828 24.176L26.11 24.865L25.627 25.111L25.489 25.284L25.312 25.649L25.056 26.11L24.94 26.401L24.671 26.965L24.233 27.595L23.79 28.063L23.279 28.438L22.944 28.617L21.696 29.141L21.03 29.341L19.827 29.487L19.317 29.724L18.679 29.647L17.965 29.596L16.974 30.388L16.152 30.581L15.424 30.726L15.111 30.856L14.395 31.313L13.978 31.522L13.2 31.756L12.881 31.732L12.45 31.517L12.047 31.567L11.601 31.536L11.237 31.556L10.954 31.734L9.28497 32.68L8.95502 32.938L8.612 33.313L8.12 33.66L7.72699 34.06L6.901 34.477L6.05103 34.793L5.63098 35.056L5.33197 35.413L4.81097 36.373L4.70099 36.616L4.49298 36.869L4.21698 36.961L4.03802 37.043L4.10101 36.561L3.90198 36.133L4.04199 35.316L3.98999 35.072L3.70599 35.231L3.52502 35.405L3.06598 36.589L2.75201 37.512L2.98999 38.042L3.06702 38.35L3.06598 38.681L2.98199 39.157L2.98798 39.467L2.96002 39.88L2.388 40.838L2.21002 41.255L2.01801 42.057L1.995 42.429L2.00897 42.986L2.25 43.474L2.43402 43.776L2.71899 44.65L3.06097 45.231L3.62402 46.402L4.245 47.352L4.28497 47.716L4.21503 48.206L4.24902 48.713L4.138 48.862L3.89801 49.037L3.62299 48.812L3.48297 48.617L3.30701 47.899L3.23499 47.858L3.117 48.172L2.987 48.309L2.86902 48.216L2.77899 48.097L2.75702 47.973L2.797 47.825L2.84003 47.287L2.58197 46.98L2.35303 46.65L2.10602 46.569L1.95398 46.718L1.94897 46.923L2.28003 47.497L2.49298 48.119L2.82202 48.508L3.01599 48.608L3.23297 48.845L3.18597 49.37L3.02899 49.566L2.89801 49.666L2.47101 49.55L2.37201 49.172L2.03802 48.429L1.92999 48.141L1.83801 48.063L1.80103 48.205L1.80798 48.461L1.74597 48.571L1.68103 48.56L1.54901 48.426L1.42999 48.354L1.35797 48.379L1.48798 48.564L1.77399 49.112L2.83002 50.456L3.72498 52.022L3.922 52.642L4.021 54.006L4.10999 54.336L4.638 55.015L5.15503 55.802L5.30701 56.194L5.30402 56.53L5.409 56.849L6.05103 57.715L6.33698 58.645L6.37201 58.985L6.28998 59.569L6.36499 60.602L6.43701 61.164L6.66998 62.278L6.948 63.082L7.27698 63.582L7.72699 64.694L8.41101 65.978L8.52197 66.613L8.487 68.306L8.43799 68.858L8.28802 68.953L8.18701 69.186L8.33301 70.3L8.367 70.936L8.146 71.536L7.896 72.069L7.45697 72.433L6.96002 72.445L6.729 72.233L6.43402 72.016L6.38202 72.985L6.37598 73.817L6.466 74.134L6.47601 74.508L6.81 74.799L6.99799 74.686L7.22998 74.67L8.03699 75.082L8.48999 75.422L9.21997 76.336L9.86603 76.577L10.708 76.993L11.686 77.125L12.468 77.149L13.697 77.368L13.96 77.29L14.486 77.222L14.888 77.08L15.25 76.989L16.33 76.14L17.383 75.266L17.904 75.197L18.371 75.187L18.941 74.889L19.459 73.986L19.723 73.785L20.074 73.56L21.071 73.428L21.658 73.521L21.972 73.375L22.769 73.212L24.427 73.062L25.337 73.183L25.945 73.163L26.267 73.223L26.519 73.618L28.278 73.278L28.778 73.254L29.091 73.311L29.485 73.606L29.927 73.327L30.324 73.364L30.726 73.095L31.337 72.289L31.615 71.786L32.06 70.727L32.39 70.347L32.753 70.158L33.179 70.097L33.836 69.906L35.261 69.015L35.814 68.823L36.106 68.655L37.087 67.964L37.702 67.831L39.506 68.01L40.361 67.964L41.023 67.856L42.028 67.484L43.122 67.204L44.465 66.616L45.587 66.008L46.266 65.868L47.335 65.761L48.909 65.603L50.742 65.685L51.206 65.56L51.434 65.449L51.755 65.33L52.151 65.413L52.455 65.503L53.375 65.988L54.761 67.009L55.067 67.052L55.979 66.819L56.284 66.842L57.56 67.592L58.089 67.608L58.512 67.589L58.832 67.67L59.172 67.874L59.575 68.346L60.428 68.799L60.471 69.165L60.408 69.403L60.216 69.412L60.053 69.463L60.258 70.23L60.616 70.85L61.476 70.934L61.789 71.151L61.99 71.396L62.147 71.785L62.264 72.394L62.695 72.902L63.097 73.336L63.191 73.515L63.38 74.13L63.452 74.31L63.609 74.919L63.838 75.615L63.775 75.686L63.639 75.671L63.397 75.494L63.184 75.297L63.07 75.328L62.94 75.463L62.921 75.63L63.111 75.586L63.222 75.61L63.485 75.823L63.73 76.071L63.924 76.216L64.392 76.834L64.575 76.696L64.799 76.573L65.155 76.909L65.297 76.976L65.378 76.847L65.243 76.244L65.108 76.098L65.076 75.884L65.243 75.731L65.324 75.548L65.721 75.097L66.59 73.75L66.857 73.596L67.165 73.301L67.581 73.076L68.011 72.809L68.285 72.705L68.554 72.65L68.855 72.403L69.183 71.735L69.43 70.944L69.694 70.596L70.098 70.225L70.409 69.71L70.384 69.307L70.388 68.896L70.612 69.213L70.753 69.535L70.976 70.612L70.785 70.849L70.583 70.968L70.622 71.346L70.757 71.839L70.807 72.234L70.383 72.651L70.017 73.175L69.578 74.193L69.55 74.501L69.481 74.929L69.507 75.306L69.575 75.671L69.467 76.237L69.29 76.743L69.058 76.756L68.9 76.737L68.553 76.782L68.233 76.752L67.866 77.858L68.099 77.91L68.277 77.847H68.598L68.957 77.649L69.482 77.487L69.782 77.544L70.134 77.526L70.646 76.11L70.773 75.189L71.034 74.776L71.115 74.491L71.25 74.221L71.522 74.685L71.741 75.136L72.223 75.868L72.374 76.233L72.434 77.121L72.121 78.151L71.933 78.446L71.706 78.703L71.516 79.136L72.091 79.246L72.464 79.238L73.047 78.923L73.162 78.881L73.455 78.876L73.567 78.711L73.854 78.554L74.068 78.37L74.345 78.225L74.597 78.321L74.654 78.404L74.717 78.497L74.624 78.701L74.616 79.132L74.451 79.085L74.304 78.829L74.12 78.895L73.992 79.088L73.717 79.027L73.763 79.153L73.91 79.4L74.491 79.876L75.112 80.507L75.343 80.805L75.849 81.756L76.209 82.767L76.18 83.066L76.003 83.606L75.876 84.155L75.887 84.443L76.004 84.808L76.259 85.182L77.205 86.203L77.705 87.103L78.37 87.57L79.447 87.742L80.016 88.08L80.607 88.762L80.795 88.82L81.082 88.848L81.45 88.433L82.011 88.477L82.749 88.889L83.188 88.791L83.501 88.842L83.939 89.075L84.58 89.536L85.26 89.768L85.664 90.117L85.978 90.169L86.541 90.396L86.955 90.202L87.307 89.958L88.12 89.113L88.757 88.706L89.092 88.548L89.361 88.478L89.702 88.214L89.49 88.028L89.289 88.059L88.945 87.954L89.141 87.832L89.346 87.741L90.336 87.113L90.599 87.299L90.781 87.507L90.978 87.792L90.83 88.195L90.698 88.385L90.393 88.69L90.025 88.702L89.85 88.677L90.213 89.019L90.527 89.249L91.177 88.831L91.339 88.502L91.462 88.311L91.668 88.269L91.976 88.333L92.095 88.574L92.162 88.868L91.939 88.948L91.831 89.166L91.755 89.373L92.143 89.639L92.342 89.808L92.582 89.804L92.859 89.845L93.069 90.236L93.265 90.687L93.497 90.562L93.642 90.444L93.89 90.557L94.16 90.912L94.379 91.315L94.401 91.485L94.569 91.563L94.728 91.443L94.804 91.273L94.798 90.96L94.755 90.466L94.644 90.391L94.391 90.659L94.247 90.465L94.053 90.259L94.056 90.06L94.267 89.961L94.446 90.004H94.67L95.852 89.831L97.364 88.246L98.026 87.665L98.714 87.234L99.426 86.957L99.797 86.868L101.709 86.719L102.704 86.767L103.216 86.658L103.453 86.512L103.855 86.113L104.137 85.869L104.483 85.801L104.567 85.503L104.568 85.184L104.634 84.851L104.533 84.226L104.56 83.405L104.638 82.977L104.847 82.376L104.939 81.759L105.033 80.885L105.116 80.367L105.22 79.894L105.491 79.373L105.721 79.036L106.264 77.768L106.452 77.643H106.609L106.677 77.566L106.698 77.496L106.652 77.445L106.583 77.298L106.629 77.179L106.794 77.061L106.846 77.106L106.93 77.081L106.943 77.016L106.865 76.669L106.979 76.183L107.118 75.334L107.275 74.953L107.368 74.65L107.731 74.195L108.128 73.747L108.015 73.699L107.829 73.665L107.949 73.558L108.044 73.526L108.165 73.597L108.265 73.4L108.287 73.091L108.384 72.635L108.298 72.238L108.482 72.114L108.691 72.039L108.779 71.623L108.837 71.456L108.967 71.301L109.185 70.97L109.356 70.625L109.761 69.967L110.157 69.698L110.747 69.49L110.813 69.371L110.663 69.298L110.669 69.226H110.891L110.981 68.996L111.215 68.826L111.606 68.434L111.736 68.074L111.817 67.786L111.856 67.135L112.492 66.281L112.935 65.128L113.042 64.389L113.152 63.99L113.226 63.406L113.159 62.798L113.178 62.289L113.62 60.997L113.721 60.464L113.857 60.122L114.066 58.849L114.07 58.189L114.39 57.421L114.789 56.796L114.823 56.218L114.689 55.774L114.708 54.836ZM48.911 5.87399L49.433 5.72299L49.953 5.905L50.244 5.85101L50.234 5.728L50.17 5.625L50.064 5.52802L49.833 5.461L49.759 5.21201L49.626 4.978L49.602 4.72198L49.497 4.48599H49.373L49.25 4.55301L48.974 4.88599L49.071 5.06799L49.1 5.401L48.936 5.51099L48.748 5.465L48.667 5.76901L48.761 5.87701L48.911 5.87399ZM1.203 47.66L1.20203 47.444L1.10199 47.235L0.78302 46.322L0.682983 46.357L0.575012 46.476L0.731995 47.136L1.271 48.103L1.34497 47.975L1.24799 47.729L1.203 47.66ZM7.53497 32.186L7.698 31.953L7.729 31.74L7.66498 31.596L7.44 31.829L7.31097 32.022L7.33698 32.14L7.53497 32.186ZM33.175 16.197L33.275 16.222L33.38 16.14L33.402 16.009L33.288 15.877L33.25 15.76L33.161 15.752L33.118 15.824L33.058 15.963L33.173 16.085L33.175 16.197ZM35.068 13.766L35.053 13.688L35.066 13.464L34.959 13.41L34.84 13.514L34.767 13.802L34.889 13.946L35.068 13.766ZM97.243 106.164L97.172 106.295L97.149 106.413L97.085 106.476L97.202 106.559L97.233 106.747L97.297 106.779H97.473L97.369 106.309L97.243 106.164ZM97.13 106.931L97.05 106.926L96.91 107.124L96.87 107.281L96.81 107.311L96.771 107.421L96.71 107.507L96.546 107.44L96.547 107.51L96.684 107.776L96.902 107.711L97.12 107.779L97.252 107.379L97.214 107.184L97.13 106.931ZM99.461 104.393L99.264 104.306L99.123 104.486L99.146 104.573L99.142 104.769L99.195 104.786L99.352 104.752L99.341 104.639L99.534 104.529L99.461 104.393ZM70.795 79.516L70.534 79.64L69.862 79.559L69.867 79.502L69.971 79.276L69.829 79.151L69.676 79.099L69.125 79.056L68.445 79.301L67.174 79.594L67.006 79.8L66.899 80.081L67.036 80.237L67.501 80.575L67.943 80.621L68.26 80.542L68.602 80.595L68.776 80.399L69.26 80.532L69.446 80.719L69.844 80.554L69.934 80.247L70.071 80.108L70.533 80.004L71.028 80.141L71.181 80.117L71.341 79.95L71.125 79.615L70.795 79.516ZM88.173 93.871L88.09 93.336L87.836 93.126L87.69 93.139L87.663 93.409L87.495 93.561L87.446 93.699L87.455 94.012L87.381 94.303L87.519 94.593L87.486 94.886L87.55 95.092L87.632 95.077L87.932 94.939L88.149 94.734L88.23 94.484L88.132 94.193L88.173 93.871ZM30.568 7.617L30.566 7.58801L30.503 7.58301L30.505 7.612L30.568 7.617Z" fill="#C0C0C0" stroke="white" stroke-width="0.5"/>
</svg>
