<svg width="174" height="255" viewBox="0 0 174 255" fill="none" xmlns="http://www.w3.org/2000/svg">
<path d="M121.507 1.873L124.203 3.37L125.629 5.094L125.928 5.037L127.86 5.694L129.694 6.511L132.744 8.621L133.172 9.308L132.842 9.868L132.085 10.252L128.187 10.934L121.116 11.767L117.071 13.372L115.784 13.454L115.672 15.812L116.222 15.94L117.123 15.625L120.292 13.26L121.477 12.868L123.689 13.066L126.561 13.958L127.72 13.645L129.786 13.878L132.203 13.196L135.057 11.715L135.837 15.005L136.889 18.232L137.722 17.878L138.435 18.058L138.675 19.104L139.065 19.545L139.873 19.309L142.347 20.216L144.046 21.835L144.685 22.584L144.992 23.646L145.166 24.492L144.899 25.527L143.838 27.355L142.495 29.016L140.684 30.283L138.596 31.072L122.557 33.683L122.014 34.298L121.692 35.857L121.906 37.861L122.656 38.172L124.407 37.049L127.437 35.977L129.663 36.028L134.986 36.943L136.556 39.312L137.387 42.886L139.228 42.09L139.622 41.479L139.912 40.414L140.143 39.263L140.316 38.027L140.509 37.18L140.723 36.729L141.182 36.351L142.238 35.894L145.009 35.449L145.676 35.576L146.155 37.293L146.259 38.288L146.294 39.575L146.279 41.149L146.214 43.001L145.978 44.813L145.211 47.931L144.594 49.604L143.929 50.8L142.654 53.496L142.212 54.209L140.811 57.284L140.463 58.69L140.442 59.711L140.683 59.905L141.09 58.946L141.241 58.258L141.503 57.534L143.568 55.611L144.011 55.071L145.362 52.745L146.225 51.866L146.934 50.939L147.31 50.279L149.386 45.522L150.469 44.071L151.605 44.068L151.806 46.517L153.169 46.892L153.76 46.787L154.711 47.377L155.128 47.861L155.837 48.107L156.568 48.679L157.212 48.064L157.4 47.677L158.023 45.912L158.865 44.333L159.644 42.34L159.903 41.853L160.313 41.41L160.739 41.235L161.899 40.288L162.193 40.222L162.818 40.522L165.583 40.678L167.092 41.166L169.192 42.513L170.656 43.246L171.334 43.892L172.32 45.269L173.116 46.698L173.486 47.115L173.472 47.565L173.197 48.184L171.226 50.33L170.58 51.749L168.714 54.391L167.803 55.289L166.812 55.64L165.709 55.724L164.994 56.098L164.888 56.453L165.398 57.523L165.621 58.281L165.59 58.952L165.053 59.942L164.85 60.165L162.912 60.895L161.935 62.127L160.659 62.276L159.757 62.136L158.518 63.451L159.003 64.513L159.447 64.971L160.827 65.929L160.84 66.477L160.18 67.578L159.28 68.867L158.215 69.755L157.815 69.887L157.31 69.664L156.844 69.712L155.819 70.12L154.842 70.185L153.098 69.608L152.154 68.938L151.657 68.706L151.031 68.77L150.79 69.041L149.804 70.634L149.32 71.712L149.009 72.808L148.876 73.994L148.921 75.268L149.041 76.136L149.236 76.604L149.47 76.887L149.88 77.035L150.781 76.895L151.135 76.975L151.243 77.229L151.438 78.031L151.404 78.783L151.24 79.835L151.114 81.054L151.024 82.436L151.072 83.186L151.437 83.35L151.608 83.296L151.807 83.542L152.033 84.085L152.203 84.658L152.316 85.26L152.257 85.755L152.024 86.143L151.499 86.58L150.207 87.439L150.076 87.7L149.974 88.22L149.902 88.998L149.746 89.703L149.506 90.333L149.288 90.708L148.869 90.874L148.32 90.896L147.703 91.256L146.25 93.341L146.228 93.571L146.772 94.234L146.749 94.812L146.078 97.271L145.894 98.476L145.748 100.114L145.509 101.483L145.176 102.589L144.848 103.857L144.526 105.281L144.576 106.366L144.999 107.117L145.558 106.51L146.253 104.528L147.009 103.664L147.824 103.935L148.535 104.331L149.443 105.11L150.203 105.594L150.858 106.229L151.129 106.762L151.401 107.511L151.403 107.982L150.922 108.235L150.763 108.154L149.56 106.919L148.974 106.61L148.196 106.982L147.519 107.541L148.127 109.772L148.778 110.788L149.966 111.249L150.585 111.733L151.038 112.35L151.392 112.65L151.867 112.518L152.506 111.912L153.397 111.879L153.798 112.18L154.089 112.74L154.22 113.782L154.191 115.296L154.094 116.427L153.929 117.183L153.608 118.191L153.341 118.374L152.964 118.319L152.613 118.113L152.288 117.754L151.796 117.474L150.807 117.171L149.808 116.511L149.248 116.348L148.063 116.432L146.786 116.85L146.736 117.397L144.898 119.294L144.521 119.268L144.012 118.619L143.298 117.995L142.88 117.999L142.262 118.789L142.108 119.094L142.116 119.381L142.571 120.058L142.756 120.213L142.991 120.343L143.808 120.505L144.163 120.682L144.496 122.758L145.026 124.028L145.253 124.286L145.453 124.379L146.103 124.333L146.939 123.906L147.231 124.248L147.846 124.665L148.206 124.769L148.644 124.752L149.137 124.91L149.813 126.065L149.547 127.509L149.97 128.656L150.645 129.831L150.805 130.259L150.87 131.031L150.885 131.538L150.936 132.001L151.022 132.417L151.111 133.231L151.204 134.437L151.18 135.415L151.037 136.169L150.755 136.714L150.336 137.052L149.993 136.963L149.727 136.447L149.352 135.895L148.869 135.307L148.066 135.238L146.885 136.97L146.358 137.056L145.929 137.227L145.472 137.976L144.799 138.425L144.206 138.247L143.163 137.377L143.542 137.959L144.084 138.638L144.422 138.989L144.67 139.065L144.943 138.984L145.337 138.707L146.226 137.936L146.461 137.818L146.66 137.873L146.823 138.101L147.011 138.762L147.222 139.85L147.195 140.771L146.929 141.526L146.701 142.009L146.512 142.221V142.388L147.009 142.58L147.711 141.601L147.934 140.375L148.256 138.95L148.825 138.473L149.469 138.95L149.989 140.281L150.723 142.702L151.033 142.952L151.427 143.527L151.601 144.23L151.555 145.059L151.471 145.659L151.349 146.031L151.197 146.267L150.923 146.417L150.42 146.537L149.294 146.286L148.708 146.28L148.781 147.088L147.595 147.78L146.259 148.051L144.993 147.511L143.943 146.678L144.288 145.507L144.485 144.197L143.977 143.324L143.866 143.305L144.041 144.652L143.894 145.165L143.32 145.788L142.915 146.075L142.879 146.242L143.078 146.387L143.207 146.665L143.268 147.076L143.2 147.49L143.002 147.907L142.894 148.256L142.876 148.538L143.057 148.88L143.438 149.281L143.851 149.479L145.785 149.565L146.56 149.78L148.397 150.721L148.479 151.009L148.168 152.678L147.998 154.266L147.641 154.555L145.708 154.623L145.085 154.869L144.174 155.591L143.298 156.453L142.844 156.459L141.047 155.707L140.358 155.203L138.878 153.769L137.765 151.563L137.254 152.484L136.941 152.922L136.618 153.149L136.307 153.184L136.007 153.027L135.667 152.68L135.097 151.872L134.416 151.069L133.939 150.686L133.921 150.795L134.203 151.268L134.615 151.812L135.657 153.401L136.024 153.8L135.987 154.083L135.33 154.334L134.53 154.874L134.139 155.27L133.535 156.228L133.325 156.376L132.421 156.616L132.124 156.558L131.456 156.032L130.449 155.687L129.856 155.38L129.033 154.822L129.317 155.432L130.903 156.357L131.077 156.654L130.752 157.206L130.553 157.407L130.175 157.449L129.618 157.334L129.049 157.357L128.466 157.519L128.216 157.725L128.298 157.976L128.437 158.204L128.633 158.41L128.817 158.408L129.261 157.785L129.596 157.741L130.485 157.895L131.384 157.408L132.032 157.197L132.517 157.143L134.284 156.394L134.651 155.552L135.244 155.213L136.561 154.953L137.837 155.086L138.492 155.195L139.023 155.993L139.735 156.556L140.329 157.196L141.025 157.406L141.428 158.253L142.555 159.194L143.273 159.396L143.716 159.842L143.752 161.719L143.799 162.523L143.608 164.729L143.031 165.233L143.146 166.381L142.995 167.303L142.422 166.954L141.835 166.347L140.429 165.401L139.12 164.79L138.611 164.234L138.013 163.802L137.2 162.034L136.671 159.809L136.439 158.698L135.994 158.636L135.423 158.934L134.923 159.249L134.684 159.786L132.986 160.522L132.37 161.024L132.018 161.009L130.75 161.763L131.258 162.123L131.495 162.168L132.008 161.965L132.316 161.705L133.471 160.991L134.399 160.868L134.736 160.559L135.445 160.117L135.925 160L135.992 160.112L136.044 160.314L136.383 163.017L136.241 163.729L135.859 164.037L135.043 164.54L134.831 164.784L135.072 165.21L135.839 164.809L136.337 164.372L136.603 164.531L137.038 165.198L137.529 165.539L138.776 166.557L139.367 167.115L140.199 167.652L141.139 168.394L141.384 168.655L142.242 169.038L142.426 169.169L142.781 170.465L143.077 170.609L143.932 170.691L143.782 171.191L142.947 172.296L142.515 172.648L142.408 172.864L142.449 173.25L142.474 173.895L142.648 175.075L142.844 173.983L142.981 173.465L143.164 173.31L143.344 173.287L143.928 172.795L144.514 173.059L144.666 174.298L144.741 175.446L144.69 176.432L144.754 177.953L144.732 178.464L144.871 178.905L145.015 180.721L145.159 181.263L144.87 181.747L143.978 181.957L143.625 181.719L142.742 181.799L142.741 181.373L142.698 180.883L142.695 180.54L142.636 180.229L142.594 178.431L142.344 178.877L142.329 179.242L142.263 179.613L142.11 181.54L141.882 182.01L141.176 181.897L140.48 181.966L140.095 181.895L138.793 181.02L138.29 180.224L137.844 179.021L137.569 177.89L137.465 176.831L137.152 175.965L136.632 175.294L136.018 174.749L135.311 174.33L134.689 173.788L134.153 173.122L133.564 172.602L132.92 172.23L132.005 172.07L130.666 172.129L129.762 171.709L129.547 171.745L129.337 171.962L129.491 172.579L130.529 172.861L131.329 172.925L132.39 172.885L133.038 173.043L133.276 173.398L133.44 174.028L133.53 174.93L133.32 175.642L132.557 176.429L132.156 176.797L130.981 177.501L130.583 177.657L129.603 177.705L128.851 177.638L127.86 177.288L127.298 177.217L126.136 177.17L125.869 177.287L126.169 177.662L126.661 177.874L127.008 178.126L127.044 178.603L126.919 179.308L126.79 179.799L126.577 180.167L125.815 180.861L125.499 181.08L124.077 181.803L123.978 181.942L124.311 181.923L125.21 181.667L125.469 181.674L126.944 182.299L128.12 182.262L130.501 181.685L130.697 181.696L130.853 181.787L131.011 182.003L131.171 182.345L130.979 182.676L130.435 182.994L129.588 183.307L129.222 183.518L128.871 183.838L128.218 184.605L128.027 185.397L128.714 185.697L129.023 185.317L129.387 184.47L129.714 183.971L130.487 183.632L131.431 183.804L132.16 183.603L133.649 182.76L133.916 182.708L136.107 183.191L138.094 184.136L139.141 184.482L140.528 184.686L143.021 184.593L143.24 184.741L143.159 185.074L143.014 185.355L142.598 185.746L142.093 186.004L141.781 186.077L141.515 186.261L140.919 186.441L140.766 186.587L140.973 187.223L140.875 187.321L140.349 187.332L139.463 187.745L138.736 187.716L138.584 187.776L138.722 187.929L138.868 188.224L139.023 188.66L138.938 188.971L138.612 189.156L138.366 189.216L137.513 188.957L137.375 188.996L137.5 189.183L137.571 189.467L137.588 189.849L137.379 190.168L136.943 190.425L136.13 191.131L135.776 191.332L135.031 191.498L134.874 191.59L135.177 192.128L135.143 192.343L134.639 192.922L133.876 193.282L133.772 193.476L133.702 193.996L133.646 194.203L133.444 194.5L132.72 195.064L132.208 195.344L131.954 195.573L131.639 195.955L131.242 196.157L130.763 196.18L130.309 196.323L129.563 196.728L129.044 196.862L127.402 197.558L126.63 197.669L125.963 197.917L124.588 198.578L123.933 198.79L123.479 199.041L122.984 199.113L122.177 198.95L121.742 198.944L121.474 199.043L121.229 199.245L120.824 199.797L120.48 199.839L119.353 199.402L119.376 199.6L119.674 200.073L119.66 200.407L118.989 200.746L118.628 200.832L118.095 200.693L117.391 200.327L116.486 199.561L115.377 198.386L114.843 197.987L114.882 198.366L115.006 198.736L115.215 199.095L115.257 199.355L115.133 199.516L114.97 199.597L114.767 199.598L114.732 199.689L115.063 200.247L115.324 200.818L115.3 201.358L114.99 201.868L114.724 202.166L114.502 202.254L113.186 203.516L112.819 203.675L112.652 203.83L112.515 204.062L112.132 205.097L111.977 205.412L111.669 205.821L111.54 205.892L111.503 206.059L111.559 206.321L111.474 206.757L111.25 207.365L110.483 209.033L109.865 210.575L109.594 211.077L109.396 211.289L109.271 211.213L108.964 211.252L108.815 211.521L108.68 212.006L108.533 212.375L108.374 212.628L107.135 213.716L106.816 213.917L106.529 213.79L106.19 213.839L105.487 213.266L105.365 213.055L104.912 212.582L104.927 212.829L105.003 212.965L105.066 213.164L105.225 213.408L105.576 214.685L105.299 214.946L105.05 215.243L104.415 215.744L103.728 216.58L103.475 216.813L103.418 216.132L103.447 215.928L103.059 215.597L103.071 215.835L103.031 216.057L102.75 216.939L102.672 217.091L102.533 217.057L102.232 217.219L101.923 217.142L101.66 216.742L101.556 216.534L101.078 217.105L100.846 217.09L100.807 217.568L100.582 218.003L100.285 218.191L99.8703 218.176L99.6164 218.433L99.0536 218.158L98.9236 217.641L99.3695 216.93L99.4954 216.636L99.4135 216.273L99.5214 215.803L100.373 214.304L100.95 213.54L100.917 213.403L100.133 213.236L99.4485 212.973L98.7817 212.883L98.4868 212.972L98.9566 213.412L99.6214 213.838L99.2945 214.244L99.0126 214.674L98.7207 215.839L98.5338 216.314L97.809 215.769L97.4661 215.584L97.684 216.189L98.3188 216.761L98.3598 216.949L98.3558 217.626L97.1402 218.221L95.8716 218.311L94.9609 218.479L93.4245 218.683H92.8276L92.7767 218.911L94.2792 219.947L94.4981 220.136L94.2892 220.491L93.9783 220.711L93.4904 221.468L93.2355 221.728L92.6037 222.085L91.4411 221.687L90.8433 221.865L90.2715 221.74L90.2595 222.175L90.4304 222.492L90.6034 223.277L90.9872 223.216L91.4751 222.969L91.852 223.562L92.0999 224.562L92.5328 225.067L92.7247 225.457L92.8027 225.824L92.5328 226.189L91.9739 226.703L91.3541 226.799L91.3881 227.205L91.1202 227.496L90.5514 227.411L90.2855 227.207L90.0096 227.111L88.878 227.002L90.0176 227.782L90.4224 228.144L90.6024 227.93L90.9973 227.878L91.5801 228.076L91.4831 229.382L91.738 230.433L91.769 230.668L91.1482 231.294L91.1382 231.877L90.7683 232.039L90.3704 232.002L90.3495 232.639L90.0796 233.035L90.1275 233.283L90.2045 233.504L89.9586 233.906L89.7367 234.394L89.4188 234.82L89.2508 234.776L88.746 234.804L88.1392 234.768L87.6474 234.214L87.4434 234.029L87.2135 233.908L87.3015 234.265L87.4394 234.479L87.8933 234.879L88.729 235.372L88.703 235.721L88.4801 235.872L87.9593 236.817L87.7743 236.838L87.5404 237.081L86.8186 236.999L86.5157 236.902L85.625 236.964L85.3221 236.881L85.0622 236.921L85.3041 237.187L85.814 237.426L86.3938 237.666L87.2755 237.847L87.2435 238.189L87.0226 238.469L87.1495 238.886L87.0506 239.184L87.0086 239.538L86.8026 240.358L87.0426 240.918L87.3035 241.191L87.2735 241.55L87.3965 242.122L87.0046 242.631L86.6797 242.612L86.2168 242.726L86.0629 242.95L86.7967 243.161L86.7297 243.54L86.5297 244.014L86.3198 245.035L85.8929 246.773L85.693 248.483L84.7763 249.877L84.4514 249.916L84.3694 249.971L83.9226 249.9L83.2208 249.579L82.678 249.473L82.3111 249.469L82.2642 249.629L82.568 249.887L83.0329 249.995L83.4048 250.166L84.0715 250.325L84.3035 250.633L84.4624 250.961L84.4394 251.141L84.4384 251.353L84.5574 252.492L84.2435 252.884L84.0036 253.238L83.1708 253.189L83.0259 253.065L82.2222 252.692L82.2711 252.867L82.853 253.373L83.0559 253.625L82.9199 253.677L82.685 253.696L82.3581 253.866L81.7673 253.774L81.8003 253.519L81.9123 253.256L81.6424 253.301L81.3415 253.434L81.1665 253.385L81.0206 253.4L80.9376 253.268L80.8236 252.753L80.9596 252.494L81.4464 251.822L81.6014 251.46L81.4664 251.295L81.1185 251.683L80.7597 252.298L80.5997 252.669L80.3748 252.741L79.816 252.554L78.2255 251.693L78.2725 251.168L78.2575 250.732L78.7213 250.677L79.0582 250.487L79.3601 250.254L79.7 249.829L80.0119 249.125L79.9719 249.071L79.0572 249.969L78.4944 250.268L78.2225 250.323L78.0865 250.191L77.6337 249.903L77.3398 249.772L76.669 249.558L76.55 249.443L76.3531 249.351L76.0852 248.431L76.4311 247.307L76.669 246.979L76.82 246.599L76.9049 246.094L76.8459 245.878L76.644 245.952L76.55 246.125L76.565 246.396L76.4491 246.584L75.6494 247.015L74.8476 247.364L74.4677 247.694L74.2208 247.951L74.0279 248.203L73.733 248.181L73.3261 248.232L73.0472 248.396L72.6393 248.295L72.3734 248.052L72.0525 248.024L71.6927 248.141L71.4437 248.131L71.4647 248.296L71.6307 248.701L71.3558 248.728L70.8339 248.744L70.571 248.626L70.3651 248.472L70.1942 248.257L70.2971 247.975L71.1368 247.457L71.5177 247.156L71.2688 247.053L70.4631 247.146L70.3291 247.068L69.7893 247.115L69.8123 246.34L69.6813 246.147L69.6723 246.056L69.4854 245.839L69.3084 245.785L69.1985 245.707L68.2868 245.532L68.1678 245.097L68.1049 244.648L67.9309 244.089L67.494 243.943L67.2581 243.7L67.4461 243.451L67.5281 243.135L67.3261 242.99L67.1971 242.767L67.2161 242.622L67.0522 242.229L67.0032 241.922L67.1912 241.633L67.707 241.306L67.8739 241.174L67.9599 241.031L68.5517 240.79L68.0479 240.62L67.733 240.594L67.503 240.674L67.2911 240.994L67.0932 241.206L66.3214 241.275L66.2075 241.165L66.1535 240.713L66.1975 240.364L66.5184 239.872L66.1485 239.628L65.8096 239.548L65.4247 239.319L65.0688 239.077L64.7629 238.795L64.465 238.462L64.3701 238.42L64.4771 238.071L64.538 237.783L64.547 237.163L64.4271 236.905L64.694 236.373L65.0529 235.79L65.8466 234.921L65.0069 235.34L64.3171 236.251L64.1712 236.293L64.1202 236.128L63.8582 235.537L63.6613 235.375L63.5733 235.197L63.1805 234.88L63.0105 234.636L62.7686 234.164L62.4247 233.6L61.9359 232.483L61.1462 231.188L60.9512 230.456L61.1961 229.523L60.9252 228.877L61.675 228.577L62.7476 228.24L63.3044 227.959L63.6253 227.875L64.3071 227.823L64.535 227.54L64.1562 227.612L63.9012 227.575L63.8853 227.443L63.9792 227.208L64.0402 226.904L63.9102 226.959L63.2435 227.482L62.2578 227.896L61.488 228.126L61.3631 228.114L61.0932 228.253L60.9382 228.293L60.8183 228.253L60.5464 227.857L60.4734 227.598L60.9622 226.893L61.3271 225.927L61.8099 225.292L62.1508 225.212L62.7216 225.246L62.9226 225.302L62.8586 224.925L62.8826 224.742L63.3454 224.522L63.8853 224.424L64.2691 224.493L64.511 224.937L64.8219 225.753L65.2408 226.028L65.2218 225.637L65.0049 225.132L64.9239 224.354L64.648 224.025L64.4271 223.863L63.8153 223.942L63.4474 223.37L63.3644 223.16L63.3554 222.88L62.9875 222.056L62.8696 221.642L62.6747 221.09L62.5707 221.06L62.7026 221.755L62.8746 222.242L63.1205 223.308L63.2425 223.736L63.0775 224.074L62.7666 224.408L62.4917 224.607L61.8419 224.845L61.9819 224.325L62.0708 223.813L61.744 223.995L61.44 224.367L61.3351 224.881L61.1402 225.346L60.5613 226.483L60.3334 227.111L60.1175 227.42L59.8716 227.505L59.6587 227.26L59.4777 226.683L59.3927 226.23L59.3827 225.05L59.4057 224.497L59.3068 223.749L58.9939 221.996L58.9279 221.367L58.3991 221.032L58.3911 220.924L58.2531 220.564L58.1462 220.203L58.2341 220.071L58.3601 219.976L59.1508 219.442L59.7366 218.842L60.4374 217.897L60.7233 217.603L61.7509 217.376L62.2068 217.345L62.2028 217.176L62.0499 217.109L61.3561 217.153L60.4314 217.533L60.2724 217.67L59.8676 218.259L59.5557 218.58L58.678 219.311H58.1082L57.5204 218.435L56.8636 218.603L56.4207 218.545L56.2918 218.413L56.1938 217.209L56.5507 215.794L56.1648 215.78L56.0848 215.723L55.8809 215.399L55.7479 215.302L55.8469 215.13L56.7976 214.454L58.2201 213.12L58.8319 212.593L59.2098 212.365L59.4957 212.104L59.8436 211.536L59.9585 211.287L60.1525 211.086L60.5613 210.859L61.0082 210.515L61.7329 209.739L61.8279 209.451L61.67 209.384L61.3311 209.65L60.6423 210.36L60.1505 210.758L58.472 212.529L57.7573 213.169L57.3684 213.577L57.0665 213.965L56.7476 214.241L56.4097 214.406L55.69 214.529L55.3361 214.672L55.1231 214.568L55.0292 213.74L55.1012 213.248L55.0672 212.761L55.2471 212.061L55.514 211.564L55.626 211.293L55.673 211.107L56.2228 210.59L56.5257 210.361L56.7396 209.841L57.9602 209.656L58.2751 209.675L58.442 209.605L58.567 209.454L58.446 209.337L58.0802 209.254L57.1075 209.27L56.2088 209.181L55.7989 209.091L55.601 209.143L55.2741 208.991L54.9172 208.7L54.3634 207.628L54.5853 206.242L54.6043 205.576L55.3081 204.991L55.684 204.797L56.2178 204.355L56.9306 203.601L57.7813 203.139L58.2151 203.053L58.575 203.119L59.9066 203.774L60.5913 203.902L61.1931 203.745L61.9479 203.974L63.2835 204.912L63.5414 204.773L63.4664 204.546L61.9769 203.553L61.9849 203.255L62.3658 203.177L62.7726 202.887L62.5437 202.715L61.554 202.864L61.2681 203.102L60.3084 203.225L59.8076 203.023L59.3578 202.922L58.683 202.49L58.1181 202.631L57.7613 202.801L57.1305 202.962L56.9025 203.077L55.67 204.429L55.1511 204.709L54.7823 204.617L55.0412 203.739L55.1162 203.391V203.012L55.2231 202.491L55.8549 201.494L56.2518 200.396L56.4197 199.711L56.7306 199.634L57.1545 199.735L58.428 200.179L59.4877 200.707L60.2694 200.848L60.7833 200.863L61.0032 200.695L61.1771 200.402L61.2441 200.199L61.2941 199.783L61.3531 199.635L61.525 199.453L61.8759 198.818L61.9829 198.365L61.8679 198.1L61.634 198.127L61.1771 198.301L61.1152 198.373L61.1232 198.515L60.6823 199.216L60.2015 199.377L59.0948 199.611L58.59 199.628L57.6923 199.303L57.5564 199.176L57.4634 198.937L56.3617 198.991L56.0328 199.063L55.7709 199.032L55.8989 198.616L56.2468 198.153L56.7346 196.638L57.1435 196.248L57.9552 195.884L58.8019 195.943L60.2665 197.12L60.7083 197.222L61.1132 197.127L62.0818 196.734L62.2598 196.574L62.6087 196.085L63.0155 195.245L62.9955 195.046L62.3707 195.516L62.0379 195.642H61.756L62.0179 194.1L62.1198 192.91L62.2178 192.613L63.0385 192.702L64.1602 192.54L64.4271 192.278L64.4231 192.162L63.9732 192.003L63.7563 191.668L63.3794 191.774L62.8746 191.997L62.2408 191.972L62.2938 191.455L62.7586 190.366L62.8066 189.867L62.9875 188.866L63.0065 188.35L63.2415 187.847L63.9742 187.488L64.2821 187.273L64.2991 187.037L63.8603 186.136L63.9712 185.886L64.3161 185.658L64.4441 185.491L64.3561 185.387L64.0392 185.287L63.5513 185.487L63.0115 185.583L62.5337 185.282L62.1598 185.137L61.9239 185.182L61.2811 185.697L61.0562 185.714L60.7783 185.571L58.9369 185.125L58.708 184.967L58.0482 184.192L57.5044 183.678L56.7806 183.115L55.8419 182.686L54.6893 182.392L53.9995 182.115L53.6596 181.723L53.0768 180.858L52.634 180.134L52.551 179.775L52.8109 179.33L53.0758 179.01L53.5747 178.747L54.4354 178.834L54.8972 178.951L55.4061 179.202L55.7909 179.249L56.5897 179.178L57.4024 179.338L57.8832 179.514L58.515 179.88L60.2585 181.429L60.9862 181.964L61.3021 182.028L62.6067 182.598L62.8156 182.587L63.3494 182.32L63.4024 182.147L63.2225 181.976L62.6466 181.843L61.9709 181.211L61.552 180.708L61.5041 179.873L61.559 179.403L61.664 179.189L61.7379 178.466L61.3461 178.035L61.0732 177.899L60.3464 177.268L60.2854 177.111L60.6343 177.037L60.9762 177.08L61.709 177.4L62.0928 177.444L62.3727 177.319L62.4048 177.19L61.9589 176.826L61.4011 176.173L60.2355 176.076L59.4797 176.15L58.9969 175.925L58.4831 175.559L58.1521 175.465L57.4774 175.695L57.1365 175.724L56.8256 175.643L56.5187 174.483L56.6007 174.134L56.8416 173.983L57.0235 173.606L57.1505 173.211L57.5503 172.824L59.7446 171.959L60.2984 171.313L60.2744 171.213L59.9006 171.333L59.4227 171.625L59.1038 171.685L57.8123 171.308L57.6103 171.394L57.0875 171.935L56.3777 172.52L56.0508 172.484L55.613 172.138L55.544 171.891L55.512 171.594L55.9929 171.186L56.1468 170.97L56.4577 170.387L56.4417 170.098L55.9109 170.257L55.8419 169.988L55.8499 169.527L55.7989 168.942L55.669 168.362L55.2331 167.467L55.0522 167.237L54.9032 166.904L54.5743 165.683L54.6693 165.376L54.9612 165.143L55.0172 165.036L54.3204 165.229L54.2444 165.441L54.3754 165.754L54.4694 166.17L54.5253 166.688L54.6223 167.14L54.8742 167.634L55.0762 167.893L55.4051 168.577L55.549 169.326L55.507 169.719L55.2521 170.118L54.8402 170.547L54.7153 170.902L54.6593 171.255L54.3384 171.581L54.1415 171.459L53.9855 171.44L54.1695 172.02L54.2884 172.612L54.1455 173.203L53.7646 173.56L53.5577 173.571L53.1508 173.86L52.1092 174.011L51.7463 173.94L51.0815 173.647L50.2927 173.487L49.9799 173.091L49.57 172.368L49.3631 171.718L49.3591 171.141L49.47 170.72L49.696 170.454L49.9679 168.747L50.3517 167.356L51.3184 165.91L51.5943 165.384L51.6853 165.101L51.6843 164.885L51.5284 164.748L50.3398 166.543L49.607 166.733L49.388 166.331L49.454 165.615L49.585 165.448L50.1778 165.516L50.4077 165.116L50.0368 164.51L49.642 164.35L49.55 164.197L49.9559 163.733L50.8956 163.767L51.1075 163.442L51.4474 163.091L51.8253 162.437L51.9662 161.885L51.9982 161.41L51.9162 161.026L51.9082 160.64L51.9722 160.252L51.8732 159.822L51.6123 159.35L51.0315 158.888L50.8606 159.41L50.6796 159.624L50.4257 159.672L50.1918 159.452L49.9469 159.373L49.7069 159.177L49.457 159.114L49.3601 158.956L49.2971 158.512L49.2921 157.946L49.574 157.68L49.9669 157.471L50.2298 157.074L50.4027 156.497L50.4277 155.864L50.3048 155.176L49.9859 154.555L49.3951 155.159L49.1631 155.307L49.1102 154.875L49.0282 154.555L48.7802 154.119L48.4534 153.801L48.1395 153.589L48.1255 153.266L48.1994 152.901L48.3394 152.475L48.5204 151.582L48.7193 151.662L48.8852 151.58L48.7892 150.839L48.6293 150.214L48.4414 149.857L48.4344 149.702L48.3914 149.52L48.2464 149.079L48.0835 148.755L47.7996 147.834L47.5947 147.481L47.3318 147.298L47.0488 147.288L46.594 147.532L45.7552 147.812L45.0905 147.945L44.9795 147.872L45.3124 147.521L45.8023 147.155L46.45 146.906L46.639 146.294L46.569 145.763L46.596 145.258L46.4181 144.725L46.591 144.429L47.1808 144.13L47.4487 144.084L47.7146 143.703L46.9669 142.78L46.1831 142.173L45.9872 141.925L45.8153 141.517L45.6673 140.947L45.4254 140.375L45.0915 139.799L44.6037 139.242L43.3461 138.218L42.9142 137.508L42.5163 136.416L42.3174 135.948L42.1105 135.601L41.2348 134.785L41.1288 134.423L42.0335 133.455L42.1215 133.067L41.7516 131.882L41.3737 131.01L40.9619 130.699L40.3491 130.539L39.7873 130.149L39.2764 129.529L38.7666 129.074L38.0028 128.64L36.7253 127.519L34.7559 126.311L33.8762 125.601L33.3524 125.342L32.6626 125.276L31.3281 124.609L30.2064 124.395L29.5147 124.493L29.2887 124.382L28.7769 123.701L27.9762 123.309L27.5623 123.458L27.0485 124.188L26.4287 124.905L26.0988 125.002L25.6089 124.347L25.362 123.888L25.1261 123.731L24.9012 123.879L24.4633 124.482L24.0465 124.916L23.4297 125.43L22.9368 125.676L22.304 125.736L22.1451 125.922L21.9012 125.93L21.5733 125.762L21.2654 125.428L20.9785 124.927L20.7256 124.656L20.5056 124.616L20.0008 124.876L19.362 125.638L19.0701 125.821L18.8252 125.742L18.5253 125.505L17.9245 124.897L17.5916 124.956L17.3497 125.169L17.4167 125.673L17.9795 126.863L18.4823 127.706L18.0575 127.805L14.3467 126.664L13.8738 126.388L13.1911 125.693L12.6233 125.265L11.6566 124.154L10.9118 123.55L10.6649 123.076L10.5999 122.749L10.8368 122.306L12.3363 120.803L12.9092 120.498L14.0748 120.133L14.3497 119.904L14.4417 119.722L14.1358 119.393L12.6093 119.511L11.2497 119.291L10.0661 118.684L9.86018 118.482L9.65926 118.109L9.46431 117.565L9.50831 116.954L9.79221 116.275L9.95914 115.807L10.0081 115.553L8.52063 117.225L7.91283 117.807L7.43099 117.629L7.09309 117.354L6.92716 117.047L6.93314 116.708L6.98812 116.46L7.09111 116.305L6.30435 115.611L5.95047 115.064L5.91248 114.498L6.19138 113.912L6.4643 113.486L6.73121 113.219L7.45897 112.987L10.1161 112.542L12.0185 112.969L12.6663 111.55L13.1041 111.095L14.3837 110.62L16.353 110.554L17.7435 110.817L18.3953 111.152L19.283 111.889L19.334 111.667L19.1201 111.001L19.1051 110.446L19.464 109.477L19.6289 108.866L19.517 108.227L19.1271 107.56L18.4373 106.7L18.0655 106.629L17.6526 106.837L17.1568 107.314L16.1261 108.51L15.6393 108.759L14.8275 108.822L14.3787 108.672L13.9448 108.493L13.267 107.86L13.0201 107.741L12.7202 108.019L12.3683 108.692L12.0294 109.162L11.7026 109.43L11.3977 109.546L10.9718 109.491L9.21739 108.447L8.82152 107.98L8.79852 107.27L8.2597 106.579L7.65092 106.458L7.57694 106.226L8.34869 105.153L8.92448 104.713L8.8325 104.58L7.99678 104.557L7.43298 105.13L7.11008 105.227L6.36735 105.243L5.58758 104.956L5.25569 104.705L4.91181 104.127L4.52595 103.801L3.36133 103.305L3.09842 103.034L2.8495 102.583L1.89782 101.3L1.322 100.351L1.24704 99.81L1.91183 98.643L1.94081 98.372L1.6559 97.865L1.53695 97.49L1.63491 96.971L2.21672 95.816L2.43265 95.502L3.4753 94.819L4.51994 93.821L4.89982 93.596L5.2387 93.544L6.61126 93.604L7.0361 93.357L7.39701 92.867L7.9898 92.369L9.22639 91.61L11.9755 90.456L12.1544 90.319L12.1704 90.099L11.9235 89.5L11.8715 89.21L12.4343 88.67L13.7049 87.815L14.5736 87.402L15.1324 87.372L15.5833 87.187L16.2161 86.645L16.574 86.549L18.7362 86.336L19.6929 86.632L20.1628 86.626L20.4647 86.416L20.8635 85.799L21.6093 84.257L22.0021 83.292L22.373 81.813L22.8519 79.475L23.2098 77.162L23.4467 74.873L23.6316 73.463L23.7625 72.955L24.2114 72.309L24.6793 71.803L25.483 71.354L25.41 71.144L25.0691 70.792L24.7522 70.657L24.4593 70.738L23.9245 71.269L23.2317 71.628L22.559 71.572L22.0741 71.705L21.6293 72.189L20.9085 72.577L20.4277 72.489L19.559 71.794L19.1211 71.664L18.0105 71.73L17.6856 71.471L17.4017 70.964L17.1757 70.254L17.0068 69.336L17.0298 68.377L17.4297 66.631L17.5826 66.152L18.6652 64.175L19.332 63.242L19.9958 62.54L20.4787 62.126L20.9345 61.94L21.3723 61.502L22.1771 60.084L23.0078 58.859L24.0415 56.558L24.5413 55.949L26.2917 54.933L26.7676 54.917L27.1714 55.17L27.5543 55.699L28.6289 57.987L28.7129 57.917L28.525 57.054L28.1331 54.445L28.1961 53.36L28.8109 52.192L29.0628 51.983L29.7116 52.061L30.7582 52.423L31.458 52.819L31.9888 53.461L32.6196 53.858L32.9465 53.838L33.1794 53.532L33.5133 52.53L33.9482 50.817L34.1221 48.681L34.0361 46.105L33.9102 44.197L33.7422 42.983L33.8342 41.964L34.361 40.733L34.8439 39.828L35.9955 38.54L36.9302 38.196L37.484 38.283L38.2128 38.889L39.2234 39.26L40.1361 40.425L41.6146 43.07L42.5953 44.382L43.408 44.968L44.2088 45.961L45.3924 48.045L46.0122 48.931L46.38 49.251L46.7049 49.302L46.584 48.714L46.0182 47.479L45.1525 46.108L43.2321 43.615L42.1735 41.831L41.2248 39.773L40.527 38.536L39.2614 37.3L39.2784 36.805L40.8059 35.051L43.613 33.509L46.7769 32.293L47.8356 32.418L49.696 31.907L49.8709 31.132L50.2708 30.783L52.0032 29.695L52.5 29.71L53.2628 30.227L54.0755 31.208L54.4514 32.091L54.9622 33.596L55.2121 35.692L55.1741 42.136L55.1881 43.326L55.2861 43.783L55.639 43.102L56.0598 41.831L56.4387 40.926L56.7296 39.519L56.9335 37.599L57.0545 36.161L56.5597 34.521L56.5357 31.791L56.7836 30.317H57.4764L60.3424 35.352L61.47 36.419L62.7536 39.036L64.2531 38.76L65.6367 39.079L66.2485 38.984L66.5503 38.58L66.1205 37.497L64.1551 34.483L63.2624 32.078L62.6376 29.027L62.4857 27.382L62.9636 27.084L65.1588 27.119L68.4577 28.548L72.6763 33.396L74.7526 34.969L78.4734 40.351L79.596 41.149L80.0489 41.316L80.3908 40.665L80.6017 39.955L80.6177 39.004L80.4377 37.808L80.3338 36.414L80.3078 34.817L80.5597 31.607L81.1595 30.546L81.4244 29.338L81.1775 27.135L80.4747 25.609L77.7387 21.612L77.7276 21.129L78.2805 20.596L79.1002 20.283L85.8809 21.252L87.0526 21.606L87.5524 21.953L87.7713 22.41L88.0522 22.605L89.5087 22.061L89.4737 21.063L89.2918 20.425L81.4224 18.67L79.9559 18.066L79.2092 18.02L78.4374 18.484L76.8369 18.713L76.0982 18.625L75.1405 16.51L76.0072 13.928L76.737 13.987L78.1235 14.998L78.9453 13.584L80.2488 12.406L81.5384 11.989L84.3514 9.422L84.8713 9.196L85.5271 9.334L86.9806 10L87.5554 10.637L88.2142 11.992L88.596 12.409L89.0499 12.486L89.6717 13.094L90.5714 11.117L91.3841 8.968L92.3178 7.595L93.6384 8.397L94.4741 9.436L95.2379 10.666L96.3185 11.342L98.1499 15.457L98.4918 15.461L98.6537 15.117L98.8267 14.361L98.8886 13.232L99.1135 11.686L98.9506 11.111L97.4161 9.374L97.1262 8.701L96.8323 7.586L96.8273 6.659L97.1122 5.924L97.4121 5.587L98.4038 5.893L98.7317 5.653L99.0416 5.027L99.4144 3.846L99.7084 3.544L100.372 3.509L101.393 4.269L102.287 4.333L102.608 3.984L102.657 3.242L102.735 2.768L102.841 2.568L106.08 2.527L106.884 2.349L107.512 1.782L108.281 1.715L108.952 2.054L109.784 2.776L110.611 2.742L111.842 1.562L113.002 1L119.403 1.156L121.507 1.873ZM79.672 35.267L79.1032 35.625L77.9156 33.459L76.0352 31.264L74.3768 29.784L72.8183 25.833L72.6953 24.406L72.9162 23.144L74.2768 22.951L75.3654 22.368L78.1365 24.877L79.5221 26.972L79.9919 28.665L79.9189 32L79.672 35.267ZM153.177 40.028L152.888 40.663L152.148 40.409L151.2 38.62L150.568 37.137L150.523 35.378L150.848 34.59L151.354 34.458L152.049 35.966L152.762 37.977L153.177 40.028ZM156.13 75.774L154.942 77.585L153.186 77.446L152.146 76.612L151.849 75.353L152.245 73.943L153.507 72.805L155.09 72.09L156.525 72.52L156.723 73.943L156.13 75.774ZM152.244 102.829L151.872 103.303L151.625 101.876L151.402 99.954L151.352 97.764L151.921 96.658L152.218 96.411L152.416 96.658L152.366 97.642V99.591L152.564 100.919L152.244 102.829ZM155.172 107.232H154.627L154.425 106.891L154.554 106.286L155.313 104.32L155.566 104.159L155.937 104.373L156.05 105.385L155.802 106.39L155.172 107.232ZM4.47497 111.337L3.4753 111.45L2.49062 110.951L2.15275 110.564L2.16772 109.971L2.31669 109.765L2.8485 109.559L3.29037 109.513L3.58824 109.605L4.28903 109.971L4.79585 110.336L5.12875 110.45L5.03378 110.973L4.47497 111.337ZM153.408 126.976L153.086 127.283L151.997 122.4V120.597L152.071 119.205L152.566 119.097L152.987 119.848L153.185 122.715L153.408 126.976ZM155.04 134.202L155.263 135.376L155.362 136.445L155.709 137.121L156.452 137.025L156.748 138.275L156.205 138.754L154.052 138.563L153.162 138.658L152.543 137.892L152.568 136.542L152.642 135.181L153.261 134.399L153.78 135.084L154.399 134.595L155.04 134.202ZM51.1885 161.048L50.7916 161.69L50.4687 162.057L49.7669 163.146L49.646 163.184L49.457 163.043L49.3101 162.757L49.0452 162.688L48.9532 162.507L48.9162 162.36L48.7982 162.266L48.6113 162.207L48.3114 162.319L48.0365 162.207L47.8286 161.728L48.2124 161.406L48.4494 161.131L49.3661 161.023L49.625 161.149L49.7879 161.146L50.0358 161.071L50.5777 160.728L50.6586 160.568L51.1435 160.769L51.1885 161.048ZM55.3461 176.874L55.0832 176.931L54.3294 176.492L54.2065 176.326L54.1595 176.123L54.1885 175.882L54.4284 175.432L54.8792 174.771L55.2061 174.647L55.4091 175.062L55.608 175.618L55.634 175.899L55.621 176.23L55.569 176.51L55.478 176.74L55.3461 176.874ZM134.19 177.902L134.289 178.407L134.299 178.645L134.278 178.844L134.223 178.987L134.091 179.113L134.337 179.446L134.417 179.67L134.432 179.848L134.275 180.192L133.157 180.646L132.846 180.864L132.458 181.403L131.987 181.865L131.83 181.863L131.647 181.384L130.901 181.031L129.498 181.215L127.856 181.659L127.273 181.866L126.978 181.756L126.888 181.59L126.884 181.359L127.078 180.681L127.157 180.508L127.534 180.282L127.789 179.682L127.706 179.027L127.804 178.11L128.062 177.967L128.707 178.294L129.124 178.363L129.862 178.405L130.855 178.295L131.653 177.921L133.108 176.851L133.366 176.865L133.551 177.245L133.687 177.431L134.12 177.722L134.19 177.902ZM60.5644 178.469L60.1895 178.492L59.3178 178.337L59.2478 178.237L59.2368 178.048L59.3528 177.502L59.7366 177.429L60.1935 177.728L60.6863 178.153L60.7543 178.353L60.5644 178.469ZM57.6013 186.082L58.536 186.746L59.5267 187.203L59.6237 187.411L59.7006 187.726L59.7186 187.89L59.6966 188.042L59.6337 188.182L59.7056 188.362L59.9136 188.582L59.9346 188.839L59.6866 189.279L59.3377 189.767L57.4924 190.766L56.8396 190.935L55.2261 191.617L54.7323 191.589L54.6233 191.557L54.3184 191.257L53.9006 190.978L53.7046 190.761L53.5317 190.449L53.6007 190.256L53.9116 190.18L54.3534 190.185L55.0022 189.958L54.8222 189.753L54.6523 189.628L54.5343 189.356L54.2634 189.409L54.0605 189.253L53.6696 189.154L52.649 189.06L51.9832 188.792L51.7873 188.631L51.6143 188.353L51.4644 187.961L51.6823 186.431L51.8322 186.039L52.1781 185.91L53.0239 186.252L53.1378 186.105L52.2121 185.537L51.8722 185.198L51.7723 184.93L51.7123 184.535V184.303L51.7543 184.069L51.8372 183.834L52.0622 183.516L52.9999 183.008L54.0215 183.182L55.7949 183.806L56.0148 183.938L56.5587 184.471L57.6013 186.082ZM62.4197 189.26L61.9799 189.543L61.8909 189.48L61.8019 189.264L61.575 188.28L61.508 187.812L61.564 187.228L61.476 186.815L61.8729 186.333L62.1938 186.25L62.6267 186.376L63.3594 186.866L63.3064 187.025L63.1475 187.28L62.7066 187.613L62.5507 188.361L62.5207 188.735L62.5417 189.015L62.4197 189.26ZM101.649 218.846L101.212 218.85L101.067 218.318L101.11 217.736L101.602 217.553L101.867 217.954L101.772 218.55L101.649 218.846ZM75.7383 248.406L75.4164 249.1L75.0945 248.949L74.9356 248.639L74.6187 248.495L74.2768 248.538L74.2718 248.415L75.3824 247.673L75.9123 247.473L75.8743 247.786L75.7733 248.06L75.7383 248.406Z" fill="#C0C0C0" stroke="white" stroke-width="0.5"/>
</svg>
